<?xml version="1.0" encoding="UTF-8"?>
<!-- Created with Inkscape (http://www.inkscape.org/) -->
<svg width="731.68" height="253.08" version="1.1" viewBox="0 0 731.68 253.08" xmlns="http://www.w3.org/2000/svg">
 <g fill="#a80c30">
  <path d="m360.22 18.542c-51.146-0.781-52.188 54.427-52.188 54.427 3.073 43.125 34.792 56.042 55.573 56.042 20.781 0 35.469-11.719 35.469-11.719v-27.136s-15.625 11.25-27.604 11.25c-23.542 0-26.614-15.104-26.614-15.104l65.781-0.208c1.2494-13.802-1.8228-66.771-50.417-67.552zm-17.917 45s2.0314-16.354 14.531-17.396c8.3853-0.677 18.177 5.3646 18.177 17.656l-32.708-0.26"/>
  <path d="m414.96 109.79v-88.177h30.625v9.0624s13.802-9.8437 29.635-9.0624c9.5833 0.469 30.99 6.927 32.76 29.01v77.552l-28.802 0.05-0.833-59.063s1.7708-17.865-16.406-17.865c-17.083 0-16.354 19.427-16.354 19.427v39.063h-30.625"/>
  <path d="m512.26 128.23v-123.49h33.073v19.948h55.052s56.563 0 56.146 54.479c0 0 0.781 51.719-56.771 52.136-31.198 0.208-50.26-28.542-49.844-49.844 0.156-10 3.1249-23.802 4.5312-23.802h30.781s-6.7708 13.802-6.1979 23.333c0.729 10.937 10.781 21.094 21.406 21.094 10.677 0 25.364-8.2812 25.364-24.531 0-16.25-13.177-23.698-21.51-25.26-8.3333-1.5104-59.792 0-59.792 0v75.938h-32.24"/>
  <path d="m659.91 129.74v-105.05h32.656v9.9479s4.5834-7.6563 22.24-7.6563c8.9063 0 16.875 0.677 16.875 0.677v24.583h-22.24s-16.875 0.885-16.875 17.604v59.896h-32.656"/>
  <path d="m141.84 95.729h-72.031s-65.989-3.75-69.792 62.187c0 0-2.9166 68.438 69.792 71.354 3.073 0.107 26.042 0 40.625-12.24l0.677 11.458h30.677v-88.906l-71.198 0.05v31.458l37.552-0.107s1.6147 27.031-38.385 29.167c-43.698 2.2916-63.229-75.833 9.2187-75.99h62.813l0.05-28.438"/>
  <path d="m148.09 228.07-0.312-93.958 30.156 0.05-0.364 6.4063s3.4375-7.1355 17.865-6.7708c7.8645 0.208 11.354 2.6041 11.354 2.6041v21.719h-15.677s-14.896 0.781-14.896 15.573v54.375h-28.125"/>
  <path d="m304.7 134.17h-30.156l-1.5104 7.7084s-9.9478-9.2188-24.531-9.2188c-13.802 0-46.094 9.4271-46.771 45.26-0.781 39.115 30.625 51.354 46.771 51.354 16.094 0 22.24-4.5834 22.24-4.5834l3.75 3.8022h30.208zm-30 59.844s-8.5416 7.7604-19.323 7.6562c-12.604-0.107-21.25-11.146-21.458-21.458-0.26-10.781 9.2187-23.021 22.24-23.021 10 0 18.542 6.8751 18.542 6.8751v29.948"/>
  <path d="m364.23 133.85c-8.3333 0-20 4.3229-20 4.3229l-2.9166-4.7396h-29.167v119.53l31.458 0.107v-26.094s15.052 3.2812 23.75 3.0729c8.6458-0.26 43.073-8.125 43.073-52.604 0-41.042-42.448-43.594-46.198-43.594zm-5.3125 69.375c-10.729 0.107-15.365-7.7084-15.365-7.7084v-29.896s4.6355-6.9272 14.636-6.9272c13.021 0 22.604 10.365 22.864 22.708 0.208 11.094-9.8437 21.615-22.135 21.823"/>
  <path d="m414.13 117.29h29.948v26.094s13.802-9.948 27.604-9.948c9.9478 0 33.542 7.6563 35.052 27.604 1.5624 19.896 0.989 66.979 0.989 66.979h-30.156v-51.667s-2.0313-13.802-18.177-13.802c-17.604 0-16.094 18.385-16.094 18.385v47.292h-28.646l-0.521-110.94"/>
  <path d="m512.15 136.51h32.396v91.719h-32.396z"/>
  <path d="m614.44 162.55v-24.531c-19.271-6.875-66.51 3.0729-66.51 45.99 0 15.365 8.9062 48.281 61.042 48.281l53.073 0.208s36.406 1.9792 36.667-29.271c0.26-28.386-26.875-30.677-36.042-30.677-19.948 0-18.438-8.4896-3.8022-8.4896h33.698v-26.042s-25.312-0.625-38.333 0c-16.094 0.781-39.115 6.1459-38.333 30.677 0.729 24.531 22.969 28.385 30.677 29.896 7.6563 1.5626 21.354-0.312 23.75 0.781 1.3014 0.573 3.8542 6.1457-4.5833 6.1457h-64.427s-25.312 0.781-25.312-22.24c0-23.021 34.531-20.729 38.438-20.729"/>
  <path d="m699.03 157.76c0-7.0312 5.6771-12.188 12.396-12.188 6.6666 0 12.344 5.1563 12.344 12.188 0 7.0833-5.6771 12.24-12.344 12.24-6.7188 0-12.396-5.1563-12.396-12.24zm12.396 10.208c5.5208 0 9.8958-4.323 9.8958-10.208 0-5.7812-4.375-10.156-9.8958-10.156-5.573 0-9.948 4.3751-9.948 10.156 0 5.8854 4.375 10.208 9.948 10.208zm-2.6042-3.1251h-2.1354v-14.114h5.3645c3.3855 0 5 1.2493 5 4.0104 0 2.5521-1.5624 3.6458-3.6457 3.9062l4.0104 6.1979h-2.3959l-3.6979-6.1459h-2.5zm2.552-7.9167c1.823 0 3.4375-0.156 3.4375-2.2916 0-1.7709-1.5624-2.0833-3.0728-2.0833h-2.9167v4.3749h2.552"/>
  <path d="m272.57 52.969-26.979 71.042h-37.031l-28.437-71.406 0.156 71.406h-32.136v-124.01h48.958l29.219 84.531h0.468l28.802-84.531h49.167v124.01h-32.188"/>
 </g>
</svg>
